<svg id="Layer_1" data-name="Layer 1" xmlns="http://www.w3.org/2000/svg" viewBox="0 0 470.49 113.98"><defs><style>.cls-1{fill:#231f20;}.cls-2{fill:#27aae1;}.cls-3{fill:#c11c78;}</style></defs><path class="cls-1" d="M136.39,90.62a10.3,10.3,0,0,0,3,3.74,12.61,12.61,0,0,0,4.42,2.12,20,20,0,0,0,5.26.7,25.64,25.64,0,0,0,4-.33A13.23,13.23,0,0,0,157,95.61a8.71,8.71,0,0,0,3.07-2.54A6.6,6.6,0,0,0,161.29,89a5.93,5.93,0,0,0-1.63-4.33,12.68,12.68,0,0,0-4.25-2.77,41.33,41.33,0,0,0-6-1.94c-2.22-.55-4.47-1.17-6.75-1.84a59.36,59.36,0,0,1-6.83-2.26,23,23,0,0,1-6-3.46,16.1,16.1,0,0,1-4.25-5.31,16.68,16.68,0,0,1-1.63-7.7,18,18,0,0,1,2.06-8.81,19.31,19.31,0,0,1,5.39-6.23A23.05,23.05,0,0,1,139,40.62a30.59,30.59,0,0,1,8.42-1.2,37.86,37.86,0,0,1,9.42,1.15,23,23,0,0,1,8,3.74,18.55,18.55,0,0,1,5.56,6.59,21.08,21.08,0,0,1,2.06,9.74H159.18A12.21,12.21,0,0,0,158,55.75a8.11,8.11,0,0,0-2.67-3,11.11,11.11,0,0,0-3.82-1.56,22.11,22.11,0,0,0-4.69-.47,15.73,15.73,0,0,0-3.33.37,8.77,8.77,0,0,0-3,1.29,8,8,0,0,0-2.24,2.31,6.48,6.48,0,0,0-.87,3.51,6.1,6.1,0,0,0,.7,3.13,6.32,6.32,0,0,0,2.76,2.22,33.86,33.86,0,0,0,5.7,2q3.63,1,9.51,2.58c1.16.25,2.79.69,4.86,1.34a23.21,23.21,0,0,1,6.18,3.09,19.42,19.42,0,0,1,5.3,5.67,16.82,16.82,0,0,1,2.24,9.09,21,21,0,0,1-1.67,8.4,18.21,18.21,0,0,1-4.95,6.69,23.59,23.59,0,0,1-8.15,4.38,36.59,36.59,0,0,1-11.26,1.57,37.75,37.75,0,0,1-10-1.34,24.6,24.6,0,0,1-8.59-4.2A20.4,20.4,0,0,1,124,95.51,22.67,22.67,0,0,1,121.93,85h13.32A12.57,12.57,0,0,0,136.39,90.62Z" transform="translate(-5.98 -10.87)"/><path class="cls-1" d="M190.38,59.16v6.09h.18a14.05,14.05,0,0,1,5.78-5.63,17.14,17.14,0,0,1,7.72-1.75,18.86,18.86,0,0,1,9.2,2.12,19.38,19.38,0,0,1,6.4,5.63,24.45,24.45,0,0,1,3.77,8.17,37.93,37.93,0,0,1,1.22,9.73,34.37,34.37,0,0,1-1.22,9.23,24,24,0,0,1-3.73,7.84,18.7,18.7,0,0,1-6.22,5.44,18,18,0,0,1-8.72,2,16.91,16.91,0,0,1-7.76-1.8,14.88,14.88,0,0,1-5.83-5.3H191v22.6H178.55V59.16ZM206.56,97a10.22,10.22,0,0,0,3.33-3.37,14.43,14.43,0,0,0,1.79-4.84,30.17,30.17,0,0,0,.53-5.63,27.86,27.86,0,0,0-.57-5.63,15.33,15.33,0,0,0-1.89-4.93,10.68,10.68,0,0,0-3.37-3.51,9.06,9.06,0,0,0-5-1.34,9.23,9.23,0,0,0-5.13,1.34,10.59,10.59,0,0,0-3.33,3.46,15.06,15.06,0,0,0-1.8,4.89,30.66,30.66,0,0,0-.52,5.72,27.86,27.86,0,0,0,.57,5.63A14.92,14.92,0,0,0,193,93.62,10.06,10.06,0,0,0,196.34,97a10.77,10.77,0,0,0,10.22,0Z" transform="translate(-5.98 -10.87)"/><path class="cls-1" d="M241,59.16V68h.18A16.37,16.37,0,0,1,247,60.68a16.42,16.42,0,0,1,4.12-2.07,14.24,14.24,0,0,1,4.56-.74,9.5,9.5,0,0,1,2.72.46V70.51c-.59-.12-1.29-.23-2.1-.32a21.78,21.78,0,0,0-2.37-.14,12.71,12.71,0,0,0-5.79,1.2,10.27,10.27,0,0,0-3.81,3.27,13.61,13.61,0,0,0-2.06,4.85,27.56,27.56,0,0,0-.61,6v21.5H229.21V59.16Z" transform="translate(-5.98 -10.87)"/><path class="cls-1" d="M273.21,59.16v47.7H260.77V59.16Z" transform="translate(-5.98 -10.87)"/><path class="cls-1" d="M292,59.16v6.65h.26a14.58,14.58,0,0,1,6.14-6.05,17,17,0,0,1,7.71-1.89,20.3,20.3,0,0,1,8.2,1.43,12.34,12.34,0,0,1,5,4,15.89,15.89,0,0,1,2.58,6.18,40.13,40.13,0,0,1,.75,8.07v29.34H310.2V79.92c0-3.93-.59-6.87-1.75-8.81s-3.25-2.91-6.23-2.91c-3.39,0-5.84,1.07-7.36,3.19s-2.28,5.61-2.28,10.47v25H280.14V59.16Z" transform="translate(-5.98 -10.87)"/><path class="cls-1" d="M372,110.37a16.61,16.61,0,0,1-3.2,6.87,19.3,19.3,0,0,1-7.1,5.4q-4.65,2.22-12.45,2.21a27.8,27.8,0,0,1-6.79-.87,21.12,21.12,0,0,1-6.31-2.72,16.05,16.05,0,0,1-4.74-4.76,14.25,14.25,0,0,1-2.14-7h12.36a7.48,7.48,0,0,0,3.41,5.12,11.83,11.83,0,0,0,5.88,1.43q5.25,0,7.67-3.32a13.58,13.58,0,0,0,2.32-8.4V98.1h-.18a12.55,12.55,0,0,1-5.74,5.58,17.8,17.8,0,0,1-7.84,1.8,19,19,0,0,1-8.77-1.89,16.93,16.93,0,0,1-6.05-5.17,22.19,22.19,0,0,1-3.46-7.66,38.1,38.1,0,0,1-1.09-9.27,31.09,31.09,0,0,1,1.27-8.9A23.78,23.78,0,0,1,332.81,65a18.32,18.32,0,0,1,6.09-5.21,17.58,17.58,0,0,1,8.37-1.94,16.88,16.88,0,0,1,7.85,1.75,13.9,13.9,0,0,1,5.65,5.91H361V59.16h11.83v44.66A34.07,34.07,0,0,1,372,110.37ZM355,94.5a10,10,0,0,0,3.33-3,13.54,13.54,0,0,0,2-4.2,18.19,18.19,0,0,0,.66-4.94,28.49,28.49,0,0,0-.53-5.58,14.41,14.41,0,0,0-1.75-4.66,9.36,9.36,0,0,0-3.24-3.23,9.83,9.83,0,0,0-5.09-1.2,8.72,8.72,0,0,0-4.51,1.11,9.72,9.72,0,0,0-3.16,3,13.18,13.18,0,0,0-1.84,4.33,22.59,22.59,0,0,0-.57,5.13,27.49,27.49,0,0,0,.48,5.12A14.18,14.18,0,0,0,342.41,91a10,10,0,0,0,3.11,3.32,8.41,8.41,0,0,0,4.82,1.3A9.49,9.49,0,0,0,355,94.5Z" transform="translate(-5.98 -10.87)"/><path class="cls-2" d="M398.55,41l8.94,46.5h.18l9-46.5h18.67v65.87H423.79V54.27h-.17l-11.13,52.59h-9.82L391.54,54.27h-.18v52.59H379.79V41Z" transform="translate(-5.98 -10.87)"/><path class="cls-2" d="M441.5,41h12.62V96h22.35v10.88h-35Z" transform="translate(-5.98 -10.87)"/><polygon class="cls-3" points="0.99 0 95.44 38.23 95.19 46.03 0 16.8 0.99 0"/><polygon class="cls-3" points="46.63 47.81 107.97 59.18 107.46 67.66 45.85 60.92 46.63 47.81"/><polygon class="cls-3" points="11.06 74.35 10.09 90.79 95.36 82.43 95.86 73.95 11.06 74.35"/><polygon class="cls-3" points="66.56 98.15 67.31 108.45 111.24 95.37 111.69 87.85 66.56 98.15"/><rect class="cls-3" x="254.93" y="31.22" width="12.43" height="14.4"/></svg>